<svg xmlns="http://www.w3.org/2000/svg" xmlns:xlink="http://www.w3.org/1999/xlink" width="124.754" height="135.457" viewBox="0 0 124.754 135.457"><defs><linearGradient id="a" x1="0.5" x2="0.5" y2="1" gradientUnits="objectBoundingBox"><stop offset="0" stop-color="#00b3ff"/><stop offset="0.479" stop-color="#00afff"/><stop offset="0.479" stop-color="#0086bf"/><stop offset="0.611" stop-color="#0086bf"/><stop offset="0.612" stop-color="#310051"/><stop offset="0.764" stop-color="#1a002a"/><stop offset="0.771" stop-color="#a9e5ff"/><stop offset="1" stop-color="#a9e5ff"/></linearGradient></defs><path d="M35.585-29.668a5.575,5.575,0,0,0,4.406-1.923,7.757,7.757,0,0,0,1.682-5.288q0-8.813-3.2-14.9a76.187,76.187,0,0,0-9.294-13.3,75.247,75.247,0,0,1-7.05-9.614,16.853,16.853,0,0,1-2.243-8.653,10.192,10.192,0,0,1,3.926-8.412q3.926-3.125,10.656-3.125A25.707,25.707,0,0,1,45.52-92.4a101.735,101.735,0,0,1,12.338,7.13q4.006,2.243,6.57,2.243a5.931,5.931,0,0,0,4.727-2.484,9.035,9.035,0,0,0,2-5.849,8.987,8.987,0,0,0-3.846-7.531,50.207,50.207,0,0,0-15.863-9.053,54.1,54.1,0,0,0-18.427-3.285,42.6,42.6,0,0,0-17.386,3.365A28.2,28.2,0,0,0,3.778-98.569,22.8,22.8,0,0,0-.468-84.949a26.031,26.031,0,0,0,4.006,14.5,89.022,89.022,0,0,0,11.7,13.86,105.1,105.1,0,0,1,9.855,11.3,22.786,22.786,0,0,1,4.086,10.335,6.341,6.341,0,0,0,2.163,3.926A6.531,6.531,0,0,0,35.585-29.668Zm-.32,33.65A11.372,11.372,0,0,0,43.757.536a11.782,11.782,0,0,0,3.365-8.573,11.782,11.782,0,0,0-3.365-8.573,11.372,11.372,0,0,0-8.492-3.445,11.372,11.372,0,0,0-8.492,3.445,11.782,11.782,0,0,0-3.365,8.573A11.637,11.637,0,0,0,26.852.536,11.445,11.445,0,0,0,35.265,3.981Z" transform="matrix(0.819, -0.574, 0.574, 0.819, 64.181, 131.927)" fill="url(#a)"/></svg>