<svg xmlns="http://www.w3.org/2000/svg" viewBox="0 0 1840 926"><defs><clipPath id="a"><path fill="none" d="M0 0h135v165H0z"/></clipPath><clipPath id="b"><path fill="none" d="M0 0h130v165H0z"/></clipPath></defs><g fill="none" stroke="#fbff88" stroke-miterlimit="10" stroke-width="3"><path d="M1727 680h-24a5 5 0 01-5-5h0a5 5 0 015-5l24 1a5 5 0 015 4h0a5 5 0 01-5 5z"/><path d="M1727 689h-24a5 5 0 01-5-5h0a5 5 0 015-4h24a5 5 0 015 5h0a5 5 0 01-5 4zM1692 649h0s0 0 0 0a63 63 0 0110 22h26a62 62 0 019-22h1l1-2a28 28 0 10-48 0 24 24 0 001 2z"/><path d="M1704 689a11 11 0 0022 0zM1710 670v-23a4 4 0 10-4 4h9M1720 670v-23a4 4 0 114 4h-9"/><g stroke-linecap="round"><path d="M1750 638h8M1751 628l7-4M1748 647l7 4"/></g><g stroke-linecap="round"><path d="M1678 638h-8M1677 628l-7-4M1680 647l-7 4"/></g></g><g fill="none" stroke="#c4e5ff" stroke-linecap="round" stroke-miterlimit="10" stroke-width="3"><path d="M1690 224l3-7M1681 219v-8M1697 230l7-5"/></g><g fill="none" stroke="#9cd4ff" stroke-linecap="round" stroke-miterlimit="10" stroke-width="3"><path d="M247 161l-4-8M256 156v-8M239 167l-6-5"/></g><g fill="#b9b9b9"><path d="M1251 49h4l1 1a1 1 0 01-1 1 7 7 0 01-1 1 1 1 0 00-1 0 2 2 0 01-1 0 3 3 0 01-2-1h-1v-1a6 6 0 010-1 2 2 0 01-1-1 4 4 0 010-1v-4a24 24 0 010-3v-1l1-3v-2-2-1a1 1 0 011 0 1 1 0 000-1h4a4 4 0 011 1h1v1h-1a5 5 0 00-1 0h-1-1-1v2a1 1 0 010 1v5h-1 1a8 8 0 012 0h2l1 1h-1c-1 0 0 0 0 0v1a1 1 0 01-1 0h-1a5 5 0 01-2 0v7zm-1-9v-1 1zm0 9zm1 0zM1260 37h4a4 4 0 001 0 2 2 0 012 0 1 1 0 010 1v1a18 18 0 01-3 0 2 2 0 00-1 0h-2a20 20 0 01-3 0h-1c-1 0 0 0 0 0a1 1 0 011-1v-1a1 1 0 001 0h1zm0 4s0 1 0 0l1 1v-1h1v1l1-1h2l2 1v1a9 9 0 01-3 0h-1v0l-1 1h-1v-1 1a10 10 0 01-3 0 4 4 0 01-1-1 1 1 0 011-1h2v-1zm-2-3zm0 5zm0-5zm0 4zm0-5zm0 1zm0 4zm0-4zm0 4zm0-5zm0 5zm0-5zm0 5zm0-5zm0 5zm0-4zm0 5zm0-5zm0 4zm1-5h-1 1zm0 5h-1 1zm0-5zm0 0zm0 4zm0 1zm0-5s0 1 0 0zm0 5zm0 0zm0-5zm0 1zm0 4zm0 0zm0-5zm0 1zm0 4zm0-5zm0 4zm0 1zm0-5zm0 5zm0 0zm0-5zm0 2zm0 3zm0 1zm0 0zm0-6zm0 5zm0-4zm0 5zm0-6zm0 5zm0-5zm0 5zm0-5zm0 4zm0 1zm0-5zm0 5zm1-5c-1 0 0 0 0 0zm0 5zm0-5zm0 1zm0 4zm0 0zm0-4v-1zm0 4zm0-5zm0 5v-1 1zm0-4zm0 4zm0-4zm0 4zm0-5zm0 5zm0-4zm0-1zm0 0zm0 5zm0-4zm0 4zm0-5zm0 1zm0 4zm0 0zm0-4zm0 5zm0-6zm0 4zm0-3zm0 4zm0 0zm0 1zm0-6zm0 1zm0 3zm0 1zm0-4zm0 5zm0-6zm0 2zm0 3zm0 1zm0-5v0zm0 5c1 0 1 0 0 0zm1-5zm0 0zm0 4zm0 1zm0-6zm0 0v1-1zm0 2zm0 3zm0 0zm0 1zm0-5zm0 5zm0 0zm0-5zm0-1zm0 5zm0-4zm0 5zm0-6zm0 1v-1 1-1 1zm0 0zm0 1zm0 3zm0 0zm0 1zm0 0zm0 0zm0-6zm0 4zm0-4zm0 1zm0 0zm0 4v-1 1zm0 0zm0 1zm0-5zm0 4zm0-5zm0 4zm0 1zm0-5zm0 1zm0 4zm0 0zm0-5zm0 5zm1-5h-1 1c-1 0-1 0 0 0zm0 4l-1 1h1v-1zm-1-4h0zm0 1zm0 4h0zm1-4zm0 4zm0 1c0-1 0-1 0 0 0-1 0 0 0 0zm0-6zm0 5zm0-5v0zm0 5zm0-3zm0 4zm0-5zm0 4zm0-3zm0 4zm0-6zm0 1zm0 0zm0 4zm0 0zm0 1zm0-4zm0 4zm0-5zm0 0zm0 5zm0 0zm0-5zm0 4zm0-5zm0 5zm0-5zm0 1zm0 4zm0 1zm0-5zm0 0zm0 4zm0 1zm0-6zm0 1zm0 4zm0 0zm0-4zm0 5zm0-6zm0 1zm0 3zm0 1zm0-5zm0 1zm0 4zm0 1zm0-6zm0 1zm0 1zm0 3zm0 0zm0 1zm0-5zm0 1zm0 0zm0 4zm0 0zm0 0zm0-5zm0 4zm0-5zm0 5zm0-5h1-1zm0 0zm0 2zm0 2l1 1v-1h-1zm0 1zm0 1zm0-6zm0 5zm0 1zm1-5c-1 0 0 0 0 0zm0 4v1-1zm0-4zm0 0zm0 1zm0 3zm0 0zm0 1zm0-5zm0 4zm0-4zm0 1c0-1 0 0 0 0zm0 3zm0 1zm0-6zm0 0zm0 1zm0 3zm0 1zm0 0zm0 0zm0 0zm0-3zm0 4zm0-6zm0 1zm0 4zm0 0zm0-4zm0 5zm0-5zm0 4zm0-4zm0 1zm0 3zm0 0zm0-4zm0 4a1 1 0 000 1v-1zm0-5zm0 0zm0 5zm0-5zm0 5zm0-4zm0 5v-1 1-1 1zm0-5zm0 4zm0-4zm0 5zm1-6h-1 1zm0 5l-1-1v1h1v-1c0 1 0 0 0 0v1zm-1-4zm0 4zm0-4zm0 5zm1-5h-1 1zm0 4h-1v1l1-1zm-1-5zm1 1zm-1 4zm1 0s-1 0 0 0zm0-4zm0 4zm0-5zm0 5zm0-4zm0 5zm0-5zm0 4zm0-4zm0 0zm0 4zm0 0zm0-4zm0 5zm0-1zm0-4zm0 4zm0-5zm0 1zm0 3zm0 1zm0-5zm0 5s0-1 0 0c0-1 0 0 0 0zm0-5zm0 1h1l-1-1v1zm0 0zm0 0zm0 3zm0 1h0zm0 0zm0 1zm0-6zm0 0zm0 0zm0 4zm0 1zm0 0zm0-4zm0-1zm0 5zm0-5zm0 0zm0 1zm0 3zm0 1zm0 0zm0-4zm0 4zm0-5zm0 1zm0 3zm0 2zm1-6zm0 5zm0-5h-1 1zm0 5h-1 1zm0-5zm0 1zm0 0zm0 3zm0 1zm0 0zm0-5zm0 1zm0 4zm0 0zm0-5zm0 5zm0-5zm0 5zm0-5zm0 4zm0-4zm0 4s0 1 0 0zm0-3zm0 5zm0-6zm0 1zm0 3zm1-4zm0 1zm0 3zm0 1zm0-5zm0 1zm0 3zm0 1zm0-4zm0 0zm0 4zm0 0zm0-4zm0 5zm0-5zm0 3zm0 2zm0-6zm0 4zm0-4zm0 5zm0-5zm0 1c0-1 0-1 0 0zm0 4zm0 0zm0 1zm0-6zm0 5zm0-4zm0 4zm0-5zm0 4c0 1 0 0 0 0zm0-2zm0 4zm0-5zm0 5zm0-6zm0 0zm1 1c-1 0-1 0 0 0-1 0-1 0 0 0zm-1 1zm0 2zm0 1zm1 0zm-1 1zm0-6zm1 0zm0 5zm0-5zm0 4zm0-3s0-1 0 0zm0 4zm0-4zm0 4zm0-4zm0 4zm0 1zm0-6zm0 1zm0 4zm0 0zM1270 30h1v1l1 1v1c0 1 0 0 0 0v1l1 1c0 1 0 0 0 0v1l1 1 1 2v-1a3 3 0 010-1 8 8 0 001-1v-2l1-2a1 1 0 010-1v-1l1-1h1v1l1 1v17l1 1v2a1 1 0 010 1 1 1 0 01-1 1l-1-1a1 1 0 010-1 7 7 0 000-1l-1-1v-1-1-1-4a8 8 0 000-2v-6a6 6 0 010-1v3a3 3 0 00-1 0 6 6 0 010 1v2l-1 1v2a6 6 0 000 1 1 1 0 01-1 0v1a1 1 0 010-1h-1v-1a4 4 0 00-1-1l-1-1a12 12 0 010-1v-2l-1-1a6 6 0 010-1 1 1 0 01-1-1v-1 1a8 8 0 000 2v2a1 1 0 010 1v1a3 3 0 010 1v1h1v2a2 2 0 010 1v5a6 6 0 010 1v1a2 2 0 00-1 1h-1v-3-4a7 7 0 010-2v-1-3-1-2a10 10 0 00-1-1v-1a3 3 0 000-1v-3a3 3 0 000-1 2 2 0 012 0zm1 2h-1 1v0zM1292 51h-1v1a3 3 0 01-1 0h-1-2a4 4 0 01-1 0v-1a3 3 0 01-1 0l-1-2a6 6 0 01-1-2 16 16 0 01-1-2 11 11 0 010-2v-1a14 14 0 010-2l1-1v-2a13 13 0 011-2l1-1a5 5 0 010-1l1-1a5 5 0 011-1 4 4 0 011-1h1a2 2 0 011 0 2 2 0 011 0 2 2 0 010 1h-1a1 1 0 000 1 7 7 0 00-2 0 5 5 0 000 1h-1a6 6 0 000 1h-1v1a4 4 0 000 1 4 4 0 00-1 2v2a6 6 0 01-1 0v2a4 4 0 010 1v1a2 2 0 000 1l1 1v1a5 5 0 000 1 5 5 0 001 1l1 1a2 2 0 001 1 1 1 0 001 0l1-1h1a1 1 0 011 0v1z"/></g><text fill="#b9b9b9" font-family="SegoeUI, Segoe UI" font-size="14.7" transform="translate(1293 33)"><tspan x="0" y="0">2</tspan></text><g fill="none" stroke="#fff29c" stroke-miterlimit="10" stroke-width="3"><path d="M97 565H87a1 1 0 01-1-1v-26a1 1 0 011-1h10a1 1 0 011 1v26a1 1 0 01-1 1zM116 565h-10a1 1 0 01-1-1v-36a1 1 0 011-1h10a1 1 0 011 1v36a1 1 0 01-1 1zM135 565h-10a1 1 0 01-1-1v-45a1 1 0 011-1h10a1 1 0 011 1v45a1 1 0 01-1 1z"/><path stroke-linecap="round" stroke-linejoin="round" d="M68 497v81M152 565H54"/></g><g fill="none" stroke-linecap="round" stroke-linejoin="round" stroke-miterlimit="10" stroke-width="3" transform="translate(2 5)"><circle cx="14.2" cy="14.2" r="14.2" stroke="#fbff9c" transform="translate(1439)"/><circle cx="14.2" cy="14.2" r="14.2" stroke="#f89cff" transform="translate(1637 237)"/><circle cx="14.2" cy="14.2" r="14.2" stroke="#9cd4ff" transform="translate(126 710)"/><circle cx="14.2" cy="14.2" r="14.2" stroke="#f29cff" transform="translate(121 86)"/><circle cx="14.2" cy="14.2" r="14.2" stroke="#9cd4ff" transform="translate(0 20)"/><circle cx="11.5" cy="11.5" r="11.5" stroke="#faffaf" transform="translate(96 340)"/><circle cx="11.5" cy="11.5" r="11.5" stroke="#f99cff" transform="translate(1398 184)"/><circle cx="11.5" cy="11.5" r="11.5" stroke="#9cd4ff" transform="translate(916 105)"/><circle cx="11.5" cy="11.5" r="11.5" stroke="#ff9cca" transform="translate(217 625)"/><circle cx="11.5" cy="11.5" r="11.5" stroke="#ff9c9c" transform="translate(38 631)"/><path stroke="#bd9cff" d="M1700 376a6 6 0 11-6-6 6 6 0 016 6z"/><circle cx="5.7" cy="5.7" r="5.7" stroke="#e8a8ff" transform="translate(668 49)"/><circle cx="5.7" cy="5.7" r="5.7" stroke="#9cd4ff" transform="translate(820 8)"/><circle cx="5.7" cy="5.7" r="5.7" stroke="#ffc79c" transform="translate(163 412)"/><circle cx="5.7" cy="5.7" r="5.7" stroke="#9cd4ff" transform="translate(3 512)"/><circle cx="5.7" cy="5.7" r="5.7" stroke="#91b2ff" transform="translate(820 8)"/><circle cx="5.7" cy="5.7" r="5.7" stroke="#9cfffc" transform="translate(1811 604)"/><circle cx="5.7" cy="5.7" r="5.7" stroke="#9cd4ff" transform="translate(235 21)"/><circle cx="5.7" cy="5.7" r="5.7" stroke="#d79cff" transform="translate(179 75)"/><circle cx="5.7" cy="5.7" r="5.7" stroke="#ac9cff" transform="translate(1040 25)"/><path stroke="#ffd59c" d="M1667 11a6 6 0 11-5-6 6 6 0 015 5z"/><path stroke="#77c4ff" d="M1713 483a6 6 0 11-6-5 6 6 0 016 5z"/><path stroke="#9cd4ff" d="M1464 171a6 6 0 11-6-5 6 6 0 016 5zM200 763a6 6 0 11-5-6 6 6 0 015 6zM73 133a6 6 0 11-6-5 6 6 0 016 5z"/></g><g fill="none" stroke="#ff9cc7" stroke-linecap="round" stroke-linejoin="round" stroke-miterlimit="10" stroke-width="3" transform="translate(1756 296)"><ellipse cx="41.4" cy="19.6" rx="41.4" ry="19.6" transform="translate(0 26)"/><ellipse cx="41.4" cy="19.6" rx="41.4" ry="19.6" transform="rotate(-59 64 33)"/><ellipse cx="19.6" cy="41.4" rx="19.6" ry="41.4" transform="rotate(-31 38 5)"/><circle cx="5.2" cy="5.2" r="5.2" transform="translate(36 40)"/></g><g transform="translate(1738 33)"><path fill="none" stroke="#ffe19c" stroke-linecap="round" stroke-linejoin="round" stroke-miterlimit="10" stroke-width="3" d="M11 24a6 6 0 11-5-6 6 6 0 015 6z"/><circle cx="5.7" cy="5.7" r="5.7" fill="none" stroke="#ffe19c" stroke-linecap="round" stroke-linejoin="round" stroke-miterlimit="10" stroke-width="3" transform="translate(61 62)"/><circle cx="12.1" cy="12.1" r="12.1" fill="none" stroke="#ffe19c" stroke-linecap="round" stroke-linejoin="round" stroke-miterlimit="10" stroke-width="3" transform="translate(33 32)"/><path fill="none" stroke="#ffe19c" stroke-linecap="round" stroke-linejoin="round" stroke-miterlimit="10" stroke-width="3" d="M67 44l-5 7-1 8-9 1-7 6-7-6-8-1-1-8-6-7 6-7 1-8 8-1 7-6 7 6 9 1 1 8z"/><path fill="none" stroke="#ffe19c" stroke-linecap="round" stroke-linejoin="round" stroke-miterlimit="10" stroke-width="3" d="M61 68a6 6 0 016-6 5 5 0 014 2 32 32 0 10-9 8 5 5 0 01-1-4z"/><path fill="none" stroke="#ffe19c" stroke-linecap="round" stroke-linejoin="round" stroke-miterlimit="10" stroke-width="3" d="M45 0A44 44 0 009 19a6 6 0 012 5 6 6 0 01-5 6 8 8 0 01-2 0A44 44 0 1045 0z"/></g><g transform="translate(1114 2)"><path fill="none" stroke="#9793ff" stroke-linecap="round" stroke-miterlimit="10" stroke-width="3" d="M29 55L9 75a5 5 0 01-7-1h0a5 5 0 010-7l20-20a5 5 0 017 0h0a5 5 0 010 8z"/><circle cx="23.2" cy="23.2" r="23.2" fill="none" stroke="#9793ff" stroke-linecap="round" stroke-miterlimit="10" stroke-width="3" transform="translate(30)"/><circle cx="16.7" cy="16.7" r="16.7" fill="none" stroke="#9793ff" stroke-linecap="round" stroke-miterlimit="10" stroke-width="3" transform="translate(36 7)"/><path fill="none" stroke="#9793ff" stroke-linecap="round" stroke-miterlimit="10" stroke-width="3" d="M37 40l-7 6"/></g><g transform="translate(1550 65)"><path fill="none" stroke="#dbff9c" stroke-linecap="round" stroke-miterlimit="10" stroke-width="3" d="M55 100H24v-5a4 4 0 014-4h23a4 4 0 014 4z"/><circle cx="31.5" cy="31.5" r="31.5" fill="none" stroke="#dbff9c" stroke-miterlimit="10" stroke-width="3" transform="rotate(-9 75 -13)"/><path fill="none" stroke="#dbff9c" stroke-linecap="round" stroke-linejoin="round" stroke-miterlimit="10" stroke-width="3" d="M47 68L32 7l-2-7a39 39 0 0019 76l-2-8"/><ellipse cx="19.7" cy="6.9" fill="none" stroke="#dbff9c" stroke-miterlimit="10" stroke-width="3" rx="19.7" ry="6.9" transform="rotate(-14 55 -43)"/><ellipse cx="19.7" cy="6.9" fill="none" stroke="#dbff9c" stroke-miterlimit="10" stroke-width="3" rx="19.7" ry="6.9" transform="rotate(-14 251 -68)"/><ellipse cx="15.7" cy="31.5" fill="none" stroke="#dbff9c" stroke-miterlimit="10" stroke-width="3" rx="15.7" ry="31.5" transform="rotate(-14 53 -59)"/><path fill="none" stroke="#dbff9c" stroke-miterlimit="10" stroke-width="3" d="M9 46l61-16M39 77v14"/><path fill="none" stroke="#dbff9c" stroke-linecap="round" stroke-miterlimit="10" stroke-width="3" d="M20 100h40"/></g><g transform="translate(310 8)"><path fill="none" stroke="#9cd4ff" stroke-linecap="round" stroke-linejoin="round" stroke-miterlimit="10" stroke-width="3" d="M14 18a4 4 0 01-4 3 4 4 0 01-4-4 4 4 0 118 1z"/><circle cx="3.9" cy="3.9" r="3.9" fill="none" stroke="#9cd4ff" stroke-linecap="round" stroke-linejoin="round" stroke-miterlimit="10" stroke-width="3" transform="translate(21)"/><path fill="none" stroke="#9cd4ff" stroke-linecap="round" stroke-linejoin="round" stroke-miterlimit="10" stroke-width="3" d="M74 21a4 4 0 11-4-4 4 4 0 014 4z"/><path fill="none" stroke="#9cd4ff" stroke-linecap="round" stroke-miterlimit="10" stroke-width="3" d="M29 40H8a3 3 0 01-3-4v-1a3 3 0 013-3h21a3 3 0 013 4v1a3 3 0 01-3 3z"/><path fill="none" stroke="#9cd4ff" stroke-linecap="round" stroke-miterlimit="10" stroke-width="3" d="M28 63V40H10v23L0 98a9 9 0 009 8h19a9 9 0 009-8z"/><path fill="none" stroke="#9cd4ff" stroke-linecap="round" stroke-miterlimit="10" stroke-width="3" d="M5 79s6-4 13 0a10 10 0 0013-2"/><g fill="none" stroke="#9cd4ff" stroke-linecap="round" stroke-miterlimit="10" stroke-width="3"><path d="M75 40H55a3 3 0 01-3-4v-1a3 3 0 013-3h20a3 3 0 014 4v1a3 3 0 01-4 3z"/><path d="M56 98a9 9 0 0018 0V40H56v58z"/><path d="M56 98a9 9 0 0018 0V40H56v58z"/><path d="M56 77a16 16 0 019 2 10 10 0 009 1"/></g></g><path fill="none" stroke="#b9b9b9" stroke-linecap="round" stroke-miterlimit="10" stroke-width="3" d="M217 914h-71a16 16 0 01-16-17v-43a16 16 0 0116-16h71a16 16 0 0116 16v43a16 16 0 01-16 17zM130 896h103"/><path fill="#84caff" d="M184 905a3 3 0 11-3-3 3 3 0 013 3z"/><path fill="none" stroke="#b9b9b9" stroke-linecap="round" stroke-miterlimit="10" stroke-width="3" d="M170 914h23v10h-23zM162 925h39"/><g fill="none" stroke="#cb9cff" stroke-linecap="round" stroke-linejoin="round" stroke-miterlimit="10" stroke-width="3"><path d="M585 61h21v87h-21zM606 71h-10M606 92h-10M606 112h-10M606 132h-10M606 78h-5M606 85h-5M606 98h-5M606 105h-5M606 118h-5M606 125h-5"/><g><path d="M566 92h-7M566 112h-7M566 132h-7M566 78h-3M566 85h-3M566 98h-3M566 105h-3M566 118h-3M566 139h-3M566 125h-3"/></g><path d="M519 148l47-87v87z"/><path d="M540 135l13-24v24z"/></g><g><path fill="none" stroke="#ff9cc7" stroke-linecap="round" stroke-linejoin="round" stroke-miterlimit="10" stroke-width="3" d="M201 231l-15 15-41-41 15-15zM205 250l-4-19-15 15zM204 241l-7 7M142 191l5-4a8 8 0 0110 0l3 2-15 15-3-2a8 8 0 010-11zM164 194l-15 15M194 239l-38-38"/></g><g clip-path="url(#a)" transform="translate(409 664)"><circle cx="6" cy="6" r="6" fill="#dadada"/><circle cx="6" cy="6" r="6" fill="#dadada" transform="translate(29)"/><circle cx="6" cy="6" r="6" fill="#dadada" transform="translate(58)"/><circle cx="6" cy="6" r="6" fill="#dadada" transform="translate(87)"/><circle cx="6" cy="6" r="6" fill="#dadada" transform="translate(116)"/><circle cx="6" cy="6" r="6" fill="#dadada" transform="translate(0 25)"/><circle cx="6" cy="6" r="6" fill="#dadada" transform="translate(29 25)"/><circle cx="6" cy="6" r="6" fill="#dadada" transform="translate(58 25)"/><circle cx="6" cy="6" r="6" fill="#dadada" transform="translate(87 25)"/><circle cx="6" cy="6" r="6" fill="#dadada" transform="translate(116 25)"/><circle cx="6" cy="6" r="6" fill="#dadada" transform="translate(0 50)"/><circle cx="6" cy="6" r="6" fill="#dadada" transform="translate(29 50)"/><circle cx="6" cy="6" r="6" fill="#dadada" transform="translate(58 50)"/><circle cx="6" cy="6" r="6" fill="#dadada" transform="translate(87 50)"/><circle cx="6" cy="6" r="6" fill="#dadada" transform="translate(116 50)"/><circle cx="6" cy="6" r="6" fill="#dadada" transform="translate(0 75)"/><circle cx="6" cy="6" r="6" fill="#dadada" transform="translate(29 75)"/><circle cx="6" cy="6" r="6" fill="#dadada" transform="translate(58 75)"/><circle cx="6" cy="6" r="6" fill="#dadada" transform="translate(87 75)"/><circle cx="6" cy="6" r="6" fill="#dadada" transform="translate(116 75)"/><circle cx="6" cy="6" r="6" fill="#dadada" transform="translate(0 100)"/><circle cx="6" cy="6" r="6" fill="#dadada" transform="translate(29 100)"/><circle cx="6" cy="6" r="6" fill="#dadada" transform="translate(58 100)"/><circle cx="6" cy="6" r="6" fill="#dadada" transform="translate(87 100)"/><circle cx="6" cy="6" r="6" fill="#dadada" transform="translate(116 100)"/><circle cx="6" cy="6" r="6" fill="#dadada" transform="translate(0 125)"/><circle cx="6" cy="6" r="6" fill="#dadada" transform="translate(29 125)"/><circle cx="6" cy="6" r="6" fill="#dadada" transform="translate(58 125)"/><circle cx="6" cy="6" r="6" fill="#dadada" transform="translate(87 125)"/><circle cx="6" cy="6" r="6" fill="#dadada" transform="translate(116 125)"/><circle cx="6" cy="6" r="6" fill="#dadada" transform="translate(0 150)"/><circle cx="6" cy="6" r="6" fill="#dadada" transform="translate(29 150)"/><circle cx="6" cy="6" r="6" fill="#dadada" transform="translate(58 150)"/><circle cx="6" cy="6" r="6" fill="#dadada" transform="translate(87 150)"/><circle cx="6" cy="6" r="6" fill="#dadada" transform="translate(116 150)"/></g><g clip-path="url(#b)" transform="rotate(-28 1501 -2502)"><circle cx="6" cy="6" r="6" fill="#e5e5e5"/><circle cx="6" cy="6" r="6" fill="#e5e5e5" transform="translate(29)"/><circle cx="6" cy="6" r="6" fill="#e5e5e5" transform="translate(58)"/><circle cx="6" cy="6" r="6" fill="#e5e5e5" transform="translate(87)"/><circle cx="6" cy="6" r="6" fill="#e5e5e5" transform="translate(116)"/><circle cx="6" cy="6" r="6" fill="#e5e5e5" transform="translate(0 25)"/><circle cx="6" cy="6" r="6" fill="#e5e5e5" transform="translate(29 25)"/><circle cx="6" cy="6" r="6" fill="#e5e5e5" transform="translate(58 25)"/><circle cx="6" cy="6" r="6" fill="#e5e5e5" transform="translate(87 25)"/><circle cx="6" cy="6" r="6" fill="#e5e5e5" transform="translate(116 25)"/><circle cx="6" cy="6" r="6" fill="#e5e5e5" transform="translate(0 50)"/><circle cx="6" cy="6" r="6" fill="#e5e5e5" transform="translate(29 50)"/><circle cx="6" cy="6" r="6" fill="#e5e5e5" transform="translate(58 50)"/><circle cx="6" cy="6" r="6" fill="#e5e5e5" transform="translate(87 50)"/><circle cx="6" cy="6" r="6" fill="#e5e5e5" transform="translate(116 50)"/><circle cx="6" cy="6" r="6" fill="#e5e5e5" transform="translate(0 75)"/><circle cx="6" cy="6" r="6" fill="#e5e5e5" transform="translate(29 75)"/><circle cx="6" cy="6" r="6" fill="#e5e5e5" transform="translate(58 75)"/><circle cx="6" cy="6" r="6" fill="#e5e5e5" transform="translate(87 75)"/><circle cx="6" cy="6" r="6" fill="#e5e5e5" transform="translate(116 75)"/><circle cx="6" cy="6" r="6" fill="#e5e5e5" transform="translate(0 100)"/><circle cx="6" cy="6" r="6" fill="#e5e5e5" transform="translate(29 100)"/><circle cx="6" cy="6" r="6" fill="#e5e5e5" transform="translate(58 100)"/><circle cx="6" cy="6" r="6" fill="#e5e5e5" transform="translate(87 100)"/><circle cx="6" cy="6" r="6" fill="#e5e5e5" transform="translate(116 100)"/><circle cx="6" cy="6" r="6" fill="#e5e5e5" transform="translate(0 125)"/><circle cx="6" cy="6" r="6" fill="#e5e5e5" transform="translate(29 125)"/><circle cx="6" cy="6" r="6" fill="#e5e5e5" transform="translate(58 125)"/><circle cx="6" cy="6" r="6" fill="#e5e5e5" transform="translate(87 125)"/><circle cx="6" cy="6" r="6" fill="#e5e5e5" transform="translate(116 125)"/><circle cx="6" cy="6" r="6" fill="#e5e5e5" transform="translate(0 150)"/><circle cx="6" cy="6" r="6" fill="#e5e5e5" transform="translate(29 150)"/><circle cx="6" cy="6" r="6" fill="#e5e5e5" transform="translate(58 150)"/><circle cx="6" cy="6" r="6" fill="#e5e5e5" transform="translate(87 150)"/><circle cx="6" cy="6" r="6" fill="#e5e5e5" transform="translate(116 150)"/></g></svg>