<svg xmlns="http://www.w3.org/2000/svg" viewBox="0 0 1944 937"><defs><clipPath id="a"><path d="M0 271h1944v-938H0z" transform="translate(0 667)"/></clipPath></defs><g clip-path="url(#a)"><path fill="#baa5e4" d="M973-12l49 49a87 87 0 00124 0l28-28a15 15 0 0122 0 16 16 0 010 22l-90 90a80 80 0 10113 112l273-272 60 8-99 99a111 111 0 00157 157l151-152a17 17 0 0124 24l-225 225a63 63 0 0089 89l156-156a18 18 0 1125 25l-2 3a132 132 0 000 187l116 117V-87"/><path fill="#47a3ff" d="M355 0a122 122 0 01-122 122A122 122 0 01112 0a122 122 0 01121-121A122 122 0 01355 0M1309 938a76 76 0 01-76 76 76 76 0 01-76-76 76 76 0 0176-77 76 76 0 0176 77"/><path fill="#2adcff" d="M435 208a56 56 0 01-56-56 56 56 0 0156-57 56 56 0 0156 57 56 56 0 01-56 56m0-126a70 70 0 00-70 70 70 70 0 0070 70 70 70 0 0070-70 70 70 0 00-70-70"/><path fill="#acd5ff" d="M1332 552a33 33 0 01-33 33 33 33 0 01-33-33 33 33 0 0133-33 33 33 0 0133 33"/><path fill="#ffd047" d="M421 624a16 16 0 01-16 16 16 16 0 01-15-16 16 16 0 0115-16 16 16 0 0116 16M455 590a16 16 0 01-16 16 16 16 0 01-16-16 16 16 0 0116-15 16 16 0 0116 15"/><path fill="#47a3ff" d="M40 380a33 33 0 01-33 32 33 33 0 01-33-32 33 33 0 0133-33 33 33 0 0133 33"/><path fill="#7bd3ff" d="M-27 589l154-154a88 88 0 01125 0 88 88 0 010 125l-70 70a39 39 0 0055 55l15-15a80 80 0 01112 112l-62 63a17 17 0 0024 24l153-152a69 69 0 0197 97l-41 41a15 15 0 0021 22l4-4c72-72 188-72 260 0l71 71H-249S-13 603-27 589"/><path fill="#2c316d" d="M1097 768a8 8 0 0112 0l25 25a8 8 0 11-12 12l-25-25a8 8 0 010-12"/><path fill="#2c316d" d="M1134 768a8 8 0 010 12l-25 25a8 8 0 01-12 0 8 8 0 010-12l25-25a8 8 0 0112 0M388 364a5 5 0 018 0l16 17a5 5 0 01-7 7l-17-16a5 5 0 010-8"/><path fill="#2c316d" d="M412 364a5 5 0 010 8l-16 16a5 5 0 01-8 0 5 5 0 010-7l17-17a5 5 0 017 0M1292 196a36 36 0 01-35 36 36 36 0 01-36-36 36 36 0 0136-36 36 36 0 0135 36M123 195a20 20 0 01-20 20 20 20 0 01-19-20 20 20 0 0119-20 20 20 0 0120 20M934 311a6 6 0 01-6 5 6 6 0 01-6-5 6 6 0 016-6 6 6 0 016 6M934 341a6 6 0 01-6 6 6 6 0 01-6-6 6 6 0 016-5 6 6 0 016 5M964 311a6 6 0 01-6 5 6 6 0 01-6-5 6 6 0 016-6 6 6 0 016 6M964 341a6 6 0 01-6 6 6 6 0 01-6-6 6 6 0 016-5 6 6 0 016 5M92 255a6 6 0 01-6 6 6 6 0 01-6-6 6 6 0 016-6 6 6 0 016 6M92 286a6 6 0 01-6 6 6 6 0 01-6-6 6 6 0 016-6 6 6 0 016 6M122 255a6 6 0 01-6 6 6 6 0 01-6-6 6 6 0 016-6 6 6 0 016 6M122 286a6 6 0 01-6 6 6 6 0 01-6-6 6 6 0 016-6 6 6 0 016 6M31 255a6 6 0 01-6 6 6 6 0 01-6-6 6 6 0 016-6 6 6 0 016 6M31 286a6 6 0 01-6 6 6 6 0 01-6-6 6 6 0 016-6 6 6 0 016 6M61 255a6 6 0 01-6 6 6 6 0 01-6-6 6 6 0 016-6 6 6 0 016 6M61 286a6 6 0 01-6 6 6 6 0 01-6-6 6 6 0 016-6 6 6 0 016 6M1236 771a6 6 0 01-6 6 6 6 0 01-5-6 6 6 0 015-6 6 6 0 016 6M1236 802a6 6 0 01-6 5 6 6 0 01-5-5 6 6 0 015-6 6 6 0 016 6M1266 771a6 6 0 01-5 6 6 6 0 01-6-6 6 6 0 016-6 6 6 0 015 6M1266 802a6 6 0 01-5 5 6 6 0 01-6-5 6 6 0 016-6 6 6 0 015 6M1175 771a6 6 0 01-5 6 6 6 0 01-6-6 6 6 0 016-6 6 6 0 015 6M1175 802a6 6 0 01-5 5 6 6 0 01-6-5 6 6 0 016-6 6 6 0 015 6M1206 771a6 6 0 01-6 6 6 6 0 01-6-6 6 6 0 016-6 6 6 0 016 6M1206 802a6 6 0 01-6 5 6 6 0 01-6-5 6 6 0 016-6 6 6 0 016 6M1358 771a6 6 0 01-6 6 6 6 0 01-6-6 6 6 0 016-6 6 6 0 016 6M1358 802a6 6 0 01-6 5 6 6 0 01-6-5 6 6 0 016-6 6 6 0 016 6M1388 771a6 6 0 01-6 6 6 6 0 01-6-6 6 6 0 016-6 6 6 0 016 6M1388 802a6 6 0 01-6 5 6 6 0 01-6-5 6 6 0 016-6 6 6 0 016 6M1297 771a6 6 0 01-6 6 6 6 0 01-6-6 6 6 0 016-6 6 6 0 016 6M1297 802a6 6 0 01-6 5 6 6 0 01-6-5 6 6 0 016-6 6 6 0 016 6M1327 771a6 6 0 01-6 6 6 6 0 01-6-6 6 6 0 016-6 6 6 0 016 6M1327 802a6 6 0 01-6 5 6 6 0 01-6-5 6 6 0 016-6 6 6 0 016 6M450 758a15 15 0 01-14 15 15 15 0 01-15-15 15 15 0 0115-14 15 15 0 0114 14M1744 332a15 15 0 01-15 14 15 15 0 01-15-14 15 15 0 0115-15 15 15 0 0115 15"/><path fill="none" stroke="#fff" stroke-linecap="round" stroke-miterlimit="10" stroke-width="4" d="M1717 240L1955 2M1291 94l125-125M-25 782l242-243M238 1079l217-217M-144 832L73 615"/><path fill="#56d2ff" d="M336 375a30 30 0 01-29 30 30 30 0 01-30-30 30 30 0 0130-29 30 30 0 0129 29"/><path fill="#8b43b4" d="M1377 211a16 16 0 01-16 16 16 16 0 01-16-16 16 16 0 0116-15 16 16 0 0116 15"/><path fill="#f0eaf9" d="M1873 221a16 16 0 01-16 15 16 16 0 01-15-15 16 16 0 0115-16 16 16 0 0116 16"/><path fill="#fff" d="M177 735a38 38 0 01-39 38 38 38 0 01-38-38 38 38 0 0138-38 38 38 0 0139 38"/><path fill="#2adcff" d="M904 1043a105 105 0 01-105-105 105 105 0 01105-106 105 105 0 01106 106 105 105 0 01-106 105m0-236a131 131 0 10132 131 131 131 0 00-132-131"/><path fill="#35aeff" d="M57 951c3-1 103-102 141-141a21 21 0 0130 0 21 21 0 010 29l-32 32a10 10 0 000 15 10 10 0 0015 0l13-13a23 23 0 0132 0 23 23 0 010 32 10 10 0 000 14l37 36H54"/><path fill="#eac0f0" d="M1689-31L1575 83a27 27 0 000 38 27 27 0 0038 0l61-61a9 9 0 0113 14l-21 20a15 15 0 1021 21l56-56a40 40 0 0156 0l2 2 109-109s-221 16-221 17"/><path fill="none" stroke="#2c316d" stroke-linecap="round" stroke-miterlimit="10" stroke-width="4" d="M561 967l271-272M-173 1114L99 842M1378-90l-220 220M417 173l-55 56M732 855l53-53"/><path fill="#dcc7e6" d="M1808 67l-9-8 95-107c2-3 66 8 66 8L1858 67a35 35 0 01-50 0"/></g></svg>