<svg xmlns="http://www.w3.org/2000/svg" xmlns:xlink="http://www.w3.org/1999/xlink" width="1957" height="981.663" viewBox="0 0 1957 981.663"><defs><clipPath id="a"><rect width="227" height="122" fill="none"/></clipPath><clipPath id="c"><rect width="135" height="165" fill="none"/></clipPath></defs><g transform="translate(0 -92.337)"><g transform="translate(1730 952)" clip-path="url(#a)"><g transform="translate(-362 -1555)"><circle cx="6" cy="6" r="6" transform="translate(362 1555)" fill="#e9e9e9"/></g><g transform="translate(-333 -1555)"><circle cx="6" cy="6" r="6" transform="translate(362 1555)" fill="#e9e9e9"/></g><g transform="translate(-304 -1555)"><circle cx="6" cy="6" r="6" transform="translate(362 1555)" fill="#e9e9e9"/></g><g transform="translate(-275 -1555)"><circle cx="6" cy="6" r="6" transform="translate(362 1555)" fill="#e9e9e9"/></g><g transform="translate(-246 -1555)"><circle cx="6" cy="6" r="6" transform="translate(362 1555)" fill="#e9e9e9"/></g><g transform="translate(-217 -1555)"><circle cx="6" cy="6" r="6" transform="translate(362 1555)" fill="#e9e9e9"/></g><g transform="translate(-188 -1555)"><circle cx="6" cy="6" r="6" transform="translate(362 1555)" fill="#e9e9e9"/></g><g transform="translate(-159 -1555)"><circle cx="6" cy="6" r="6" transform="translate(362 1555)" fill="#e9e9e9"/></g><g transform="translate(-362 -1530)"><circle cx="6" cy="6" r="6" transform="translate(362 1555)" fill="#e9e9e9"/></g><g transform="translate(-333 -1530)"><circle cx="6" cy="6" r="6" transform="translate(362 1555)" fill="#e9e9e9"/></g><g transform="translate(-304 -1530)"><circle cx="6" cy="6" r="6" transform="translate(362 1555)" fill="#e9e9e9"/></g><g transform="translate(-275 -1530)"><circle cx="6" cy="6" r="6" transform="translate(362 1555)" fill="#e9e9e9"/></g><g transform="translate(-246 -1530)"><circle cx="6" cy="6" r="6" transform="translate(362 1555)" fill="#e9e9e9"/></g><g transform="translate(-217 -1530)"><circle cx="6" cy="6" r="6" transform="translate(362 1555)" fill="#e9e9e9"/></g><g transform="translate(-188 -1530)"><circle cx="6" cy="6" r="6" transform="translate(362 1555)" fill="#e9e9e9"/></g><g transform="translate(-159 -1530)"><circle cx="6" cy="6" r="6" transform="translate(362 1555)" fill="#e9e9e9"/></g><g transform="translate(-362 -1505)"><circle cx="6" cy="6" r="6" transform="translate(362 1555)" fill="#e9e9e9"/></g><g transform="translate(-333 -1505)"><circle cx="6" cy="6" r="6" transform="translate(362 1555)" fill="#e9e9e9"/></g><g transform="translate(-304 -1505)"><circle cx="6" cy="6" r="6" transform="translate(362 1555)" fill="#e9e9e9"/></g><g transform="translate(-275 -1505)"><circle cx="6" cy="6" r="6" transform="translate(362 1555)" fill="#e9e9e9"/></g><g transform="translate(-246 -1505)"><circle cx="6" cy="6" r="6" transform="translate(362 1555)" fill="#e9e9e9"/></g><g transform="translate(-217 -1505)"><circle cx="6" cy="6" r="6" transform="translate(362 1555)" fill="#e9e9e9"/></g><g transform="translate(-188 -1505)"><circle cx="6" cy="6" r="6" transform="translate(362 1555)" fill="#e9e9e9"/></g><g transform="translate(-159 -1505)"><circle cx="6" cy="6" r="6" transform="translate(362 1555)" fill="#e9e9e9"/></g><g transform="translate(-362 -1480)"><circle cx="6" cy="6" r="6" transform="translate(362 1555)" fill="#e9e9e9"/></g><g transform="translate(-333 -1480)"><circle cx="6" cy="6" r="6" transform="translate(362 1555)" fill="#e9e9e9"/></g><g transform="translate(-304 -1480)"><circle cx="6" cy="6" r="6" transform="translate(362 1555)" fill="#e9e9e9"/></g><g transform="translate(-275 -1480)"><circle cx="6" cy="6" r="6" transform="translate(362 1555)" fill="#e9e9e9"/></g><g transform="translate(-246 -1480)"><circle cx="6" cy="6" r="6" transform="translate(362 1555)" fill="#e9e9e9"/></g><g transform="translate(-217 -1480)"><circle cx="6" cy="6" r="6" transform="translate(362 1555)" fill="#e9e9e9"/></g><g transform="translate(-188 -1480)"><circle cx="6" cy="6" r="6" transform="translate(362 1555)" fill="#e9e9e9"/></g><g transform="translate(-159 -1480)"><circle cx="6" cy="6" r="6" transform="translate(362 1555)" fill="#e9e9e9"/></g><g transform="translate(-362 -1455)"><circle cx="6" cy="6" r="6" transform="translate(362 1555)" fill="#e9e9e9"/></g><g transform="translate(-333 -1455)"><circle cx="6" cy="6" r="6" transform="translate(362 1555)" fill="#e9e9e9"/></g><g transform="translate(-304 -1455)"><circle cx="6" cy="6" r="6" transform="translate(362 1555)" fill="#e9e9e9"/></g><g transform="translate(-275 -1455)"><circle cx="6" cy="6" r="6" transform="translate(362 1555)" fill="#e9e9e9"/></g><g transform="translate(-246 -1455)"><circle cx="6" cy="6" r="6" transform="translate(362 1555)" fill="#e9e9e9"/></g><g transform="translate(-217 -1455)"><circle cx="6" cy="6" r="6" transform="translate(362 1555)" fill="#e9e9e9"/></g><g transform="translate(-188 -1455)"><circle cx="6" cy="6" r="6" transform="translate(362 1555)" fill="#e9e9e9"/></g><g transform="translate(-159 -1455)"><circle cx="6" cy="6" r="6" transform="translate(362 1555)" fill="#e9e9e9"/></g></g><g transform="translate(134.719 439.431)"><path d="M0,0-.669,2.06A6.042,6.042,0,0,1-6.416,6.235H-8.583l1.753,1.273a6.043,6.043,0,0,1,2.195,6.756l-.669,2.06,1.752-1.273a6.043,6.043,0,0,1,7.1,0L5.3,16.324l-.669-2.06a6.044,6.044,0,0,1,2.2-6.756L8.583,6.235H6.416A6.043,6.043,0,0,1,.669,2.06Z" transform="translate(8.582 0)" fill="none" stroke="#253448" stroke-linecap="round" stroke-linejoin="round" stroke-miterlimit="10" stroke-width="1.333"/></g><g transform="translate(1089.719 359.431)"><path d="M0,0-.669,2.06A6.042,6.042,0,0,1-6.416,6.235H-8.583l1.753,1.273a6.043,6.043,0,0,1,2.195,6.756l-.669,2.06,1.752-1.273a6.043,6.043,0,0,1,7.1,0L5.3,16.324l-.669-2.06a6.044,6.044,0,0,1,2.2-6.756L8.583,6.235H6.416A6.043,6.043,0,0,1,.669,2.06Z" transform="translate(8.582 0)" fill="none" stroke="#253448" stroke-linecap="round" stroke-linejoin="round" stroke-miterlimit="10" stroke-width="1.333"/></g><g transform="translate(1072.719 994.431)"><path d="M0,0-.669,2.06A6.042,6.042,0,0,1-6.416,6.235H-8.583l1.753,1.273a6.043,6.043,0,0,1,2.195,6.756l-.669,2.06,1.752-1.273a6.043,6.043,0,0,1,7.1,0L5.3,16.324l-.669-2.06a6.044,6.044,0,0,1,2.2-6.756L8.583,6.235H6.416A6.043,6.043,0,0,1,.669,2.06Z" transform="translate(8.582 0)" fill="none" stroke="#253448" stroke-linecap="round" stroke-linejoin="round" stroke-miterlimit="10" stroke-width="1.333"/></g><g transform="translate(489.533 108.77)"><path d="M0,0-.669,2.06A6.042,6.042,0,0,1-6.416,6.235H-8.583l1.753,1.273a6.043,6.043,0,0,1,2.195,6.756l-.669,2.06,1.752-1.273a6.043,6.043,0,0,1,7.1,0L5.3,16.324l-.669-2.06a6.044,6.044,0,0,1,2.2-6.756L8.583,6.235H6.416A6.043,6.043,0,0,1,.669,2.06Z" transform="translate(8.583)" fill="none" stroke="#253448" stroke-linecap="round" stroke-linejoin="round" stroke-miterlimit="10" stroke-width="1.333"/></g><g transform="translate(215.533 913.77)"><path d="M0,0-.669,2.06A6.042,6.042,0,0,1-6.416,6.235H-8.583l1.753,1.273a6.043,6.043,0,0,1,2.195,6.756l-.669,2.06,1.752-1.273a6.043,6.043,0,0,1,7.1,0L5.3,16.324l-.669-2.06a6.044,6.044,0,0,1,2.2-6.756L8.583,6.235H6.416A6.043,6.043,0,0,1,.669,2.06Z" transform="translate(8.583)" fill="none" stroke="#253448" stroke-linecap="round" stroke-linejoin="round" stroke-miterlimit="10" stroke-width="1.333"/></g><g transform="translate(1351.759 215.916)"><path d="M0,0-.669,2.06A6.042,6.042,0,0,1-6.416,6.235H-8.583l1.753,1.273a6.043,6.043,0,0,1,2.195,6.756l-.669,2.06,1.752-1.273a6.043,6.043,0,0,1,7.1,0L5.3,16.324l-.669-2.06a6.044,6.044,0,0,1,2.2-6.756L8.583,6.235H6.416A6.043,6.043,0,0,1,.669,2.06Z" transform="translate(8.583)" fill="none" stroke="#253448" stroke-linecap="round" stroke-linejoin="round" stroke-miterlimit="10" stroke-width="1.333"/></g><g transform="translate(578.759 962.916)"><path d="M0,0-.669,2.06A6.042,6.042,0,0,1-6.416,6.235H-8.583l1.753,1.273a6.043,6.043,0,0,1,2.195,6.756l-.669,2.06,1.752-1.273a6.043,6.043,0,0,1,7.1,0L5.3,16.324l-.669-2.06a6.044,6.044,0,0,1,2.2-6.756L8.583,6.235H6.416A6.043,6.043,0,0,1,.669,2.06Z" transform="translate(8.583)" fill="none" stroke="#253448" stroke-linecap="round" stroke-linejoin="round" stroke-miterlimit="10" stroke-width="1.333"/></g><g transform="translate(1539 150)" clip-path="url(#a)"><g transform="translate(-362 -1555)"><circle cx="6" cy="6" r="6" transform="translate(362 1555)" fill="#e9e9e9"/></g><g transform="translate(-333 -1555)"><circle cx="6" cy="6" r="6" transform="translate(362 1555)" fill="#e9e9e9"/></g><g transform="translate(-304 -1555)"><circle cx="6" cy="6" r="6" transform="translate(362 1555)" fill="#e9e9e9"/></g><g transform="translate(-275 -1555)"><circle cx="6" cy="6" r="6" transform="translate(362 1555)" fill="#e9e9e9"/></g><g transform="translate(-246 -1555)"><circle cx="6" cy="6" r="6" transform="translate(362 1555)" fill="#e9e9e9"/></g><g transform="translate(-217 -1555)"><circle cx="6" cy="6" r="6" transform="translate(362 1555)" fill="#e9e9e9"/></g><g transform="translate(-188 -1555)"><circle cx="6" cy="6" r="6" transform="translate(362 1555)" fill="#e9e9e9"/></g><g transform="translate(-159 -1555)"><circle cx="6" cy="6" r="6" transform="translate(362 1555)" fill="#e9e9e9"/></g><g transform="translate(-362 -1530)"><circle cx="6" cy="6" r="6" transform="translate(362 1555)" fill="#e9e9e9"/></g><g transform="translate(-333 -1530)"><circle cx="6" cy="6" r="6" transform="translate(362 1555)" fill="#e9e9e9"/></g><g transform="translate(-304 -1530)"><circle cx="6" cy="6" r="6" transform="translate(362 1555)" fill="#e9e9e9"/></g><g transform="translate(-275 -1530)"><circle cx="6" cy="6" r="6" transform="translate(362 1555)" fill="#e9e9e9"/></g><g transform="translate(-246 -1530)"><circle cx="6" cy="6" r="6" transform="translate(362 1555)" fill="#e9e9e9"/></g><g transform="translate(-217 -1530)"><circle cx="6" cy="6" r="6" transform="translate(362 1555)" fill="#e9e9e9"/></g><g transform="translate(-188 -1530)"><circle cx="6" cy="6" r="6" transform="translate(362 1555)" fill="#e9e9e9"/></g><g transform="translate(-159 -1530)"><circle cx="6" cy="6" r="6" transform="translate(362 1555)" fill="#e9e9e9"/></g><g transform="translate(-362 -1505)"><circle cx="6" cy="6" r="6" transform="translate(362 1555)" fill="#e9e9e9"/></g><g transform="translate(-333 -1505)"><circle cx="6" cy="6" r="6" transform="translate(362 1555)" fill="#e9e9e9"/></g><g transform="translate(-304 -1505)"><circle cx="6" cy="6" r="6" transform="translate(362 1555)" fill="#e9e9e9"/></g><g transform="translate(-275 -1505)"><circle cx="6" cy="6" r="6" transform="translate(362 1555)" fill="#e9e9e9"/></g><g transform="translate(-246 -1505)"><circle cx="6" cy="6" r="6" transform="translate(362 1555)" fill="#e9e9e9"/></g><g transform="translate(-217 -1505)"><circle cx="6" cy="6" r="6" transform="translate(362 1555)" fill="#e9e9e9"/></g><g transform="translate(-188 -1505)"><circle cx="6" cy="6" r="6" transform="translate(362 1555)" fill="#e9e9e9"/></g><g transform="translate(-159 -1505)"><circle cx="6" cy="6" r="6" transform="translate(362 1555)" fill="#e9e9e9"/></g><g transform="translate(-362 -1480)"><circle cx="6" cy="6" r="6" transform="translate(362 1555)" fill="#e9e9e9"/></g><g transform="translate(-333 -1480)"><circle cx="6" cy="6" r="6" transform="translate(362 1555)" fill="#e9e9e9"/></g><g transform="translate(-304 -1480)"><circle cx="6" cy="6" r="6" transform="translate(362 1555)" fill="#e9e9e9"/></g><g transform="translate(-275 -1480)"><circle cx="6" cy="6" r="6" transform="translate(362 1555)" fill="#e9e9e9"/></g><g transform="translate(-246 -1480)"><circle cx="6" cy="6" r="6" transform="translate(362 1555)" fill="#e9e9e9"/></g><g transform="translate(-217 -1480)"><circle cx="6" cy="6" r="6" transform="translate(362 1555)" fill="#e9e9e9"/></g><g transform="translate(-188 -1480)"><circle cx="6" cy="6" r="6" transform="translate(362 1555)" fill="#e9e9e9"/></g><g transform="translate(-159 -1480)"><circle cx="6" cy="6" r="6" transform="translate(362 1555)" fill="#e9e9e9"/></g><g transform="translate(-362 -1455)"><circle cx="6" cy="6" r="6" transform="translate(362 1555)" fill="#e9e9e9"/></g><g transform="translate(-333 -1455)"><circle cx="6" cy="6" r="6" transform="translate(362 1555)" fill="#e9e9e9"/></g><g transform="translate(-304 -1455)"><circle cx="6" cy="6" r="6" transform="translate(362 1555)" fill="#e9e9e9"/></g><g transform="translate(-275 -1455)"><circle cx="6" cy="6" r="6" transform="translate(362 1555)" fill="#e9e9e9"/></g><g transform="translate(-246 -1455)"><circle cx="6" cy="6" r="6" transform="translate(362 1555)" fill="#e9e9e9"/></g><g transform="translate(-217 -1455)"><circle cx="6" cy="6" r="6" transform="translate(362 1555)" fill="#e9e9e9"/></g><g transform="translate(-188 -1455)"><circle cx="6" cy="6" r="6" transform="translate(362 1555)" fill="#e9e9e9"/></g><g transform="translate(-159 -1455)"><circle cx="6" cy="6" r="6" transform="translate(362 1555)" fill="#e9e9e9"/></g></g><g transform="translate(0 128)" clip-path="url(#c)"><g transform="translate(-362 -1555)"><circle cx="6" cy="6" r="6" transform="translate(362 1555)" fill="#e9e9e9"/></g><g transform="translate(-333 -1555)"><circle cx="6" cy="6" r="6" transform="translate(362 1555)" fill="#e9e9e9"/></g><g transform="translate(-304 -1555)"><circle cx="6" cy="6" r="6" transform="translate(362 1555)" fill="#e9e9e9"/></g><g transform="translate(-275 -1555)"><circle cx="6" cy="6" r="6" transform="translate(362 1555)" fill="#e9e9e9"/></g><g transform="translate(-246 -1555)"><circle cx="6" cy="6" r="6" transform="translate(362 1555)" fill="#e9e9e9"/></g><g transform="translate(-362 -1530)"><circle cx="6" cy="6" r="6" transform="translate(362 1555)" fill="#e9e9e9"/></g><g transform="translate(-333 -1530)"><circle cx="6" cy="6" r="6" transform="translate(362 1555)" fill="#e9e9e9"/></g><g transform="translate(-304 -1530)"><circle cx="6" cy="6" r="6" transform="translate(362 1555)" fill="#e9e9e9"/></g><g transform="translate(-275 -1530)"><circle cx="6" cy="6" r="6" transform="translate(362 1555)" fill="#e9e9e9"/></g><g transform="translate(-246 -1530)"><circle cx="6" cy="6" r="6" transform="translate(362 1555)" fill="#e9e9e9"/></g><g transform="translate(-362 -1505)"><circle cx="6" cy="6" r="6" transform="translate(362 1555)" fill="#e9e9e9"/></g><g transform="translate(-333 -1505)"><circle cx="6" cy="6" r="6" transform="translate(362 1555)" fill="#e9e9e9"/></g><g transform="translate(-304 -1505)"><circle cx="6" cy="6" r="6" transform="translate(362 1555)" fill="#e9e9e9"/></g><g transform="translate(-275 -1505)"><circle cx="6" cy="6" r="6" transform="translate(362 1555)" fill="#e9e9e9"/></g><g transform="translate(-246 -1505)"><circle cx="6" cy="6" r="6" transform="translate(362 1555)" fill="#e9e9e9"/></g><g transform="translate(-362 -1480)"><circle cx="6" cy="6" r="6" transform="translate(362 1555)" fill="#e9e9e9"/></g><g transform="translate(-333 -1480)"><circle cx="6" cy="6" r="6" transform="translate(362 1555)" fill="#e9e9e9"/></g><g transform="translate(-304 -1480)"><circle cx="6" cy="6" r="6" transform="translate(362 1555)" fill="#e9e9e9"/></g><g transform="translate(-275 -1480)"><circle cx="6" cy="6" r="6" transform="translate(362 1555)" fill="#e9e9e9"/></g><g transform="translate(-246 -1480)"><circle cx="6" cy="6" r="6" transform="translate(362 1555)" fill="#e9e9e9"/></g><g transform="translate(-362 -1455)"><circle cx="6" cy="6" r="6" transform="translate(362 1555)" fill="#e9e9e9"/></g><g transform="translate(-333 -1455)"><circle cx="6" cy="6" r="6" transform="translate(362 1555)" fill="#e9e9e9"/></g><g transform="translate(-304 -1455)"><circle cx="6" cy="6" r="6" transform="translate(362 1555)" fill="#e9e9e9"/></g><g transform="translate(-275 -1455)"><circle cx="6" cy="6" r="6" transform="translate(362 1555)" fill="#e9e9e9"/></g><g transform="translate(-246 -1455)"><circle cx="6" cy="6" r="6" transform="translate(362 1555)" fill="#e9e9e9"/></g><g transform="translate(-362 -1430)"><circle cx="6" cy="6" r="6" transform="translate(362 1555)" fill="#e9e9e9"/></g><g transform="translate(-333 -1430)"><circle cx="6" cy="6" r="6" transform="translate(362 1555)" fill="#e9e9e9"/></g><g transform="translate(-304 -1430)"><circle cx="6" cy="6" r="6" transform="translate(362 1555)" fill="#e9e9e9"/></g><g transform="translate(-275 -1430)"><circle cx="6" cy="6" r="6" transform="translate(362 1555)" fill="#e9e9e9"/></g><g transform="translate(-246 -1430)"><circle cx="6" cy="6" r="6" transform="translate(362 1555)" fill="#e9e9e9"/></g><g transform="translate(-362 -1405)"><circle cx="6" cy="6" r="6" transform="translate(362 1555)" fill="#e9e9e9"/></g><g transform="translate(-333 -1405)"><circle cx="6" cy="6" r="6" transform="translate(362 1555)" fill="#e9e9e9"/></g><g transform="translate(-304 -1405)"><circle cx="6" cy="6" r="6" transform="translate(362 1555)" fill="#e9e9e9"/></g><g transform="translate(-275 -1405)"><circle cx="6" cy="6" r="6" transform="translate(362 1555)" fill="#e9e9e9"/></g><g transform="translate(-246 -1405)"><circle cx="6" cy="6" r="6" transform="translate(362 1555)" fill="#e9e9e9"/></g></g><g transform="translate(446 -561)"><g transform="translate(474.941 749.924)"><path d="M0,0,32.668-26.041,5.133-60.585-27.536-34.544Z" fill="#fff"/></g><g transform="translate(480.074 689.339)"><path d="M0,0A20.889,20.889,0,0,0-29.356-3.313a20.889,20.889,0,0,0-3.312,29.355Z" fill="#fff"/></g><g transform="translate(450.719 686.025)"><path d="M0,0C-3.433,8.087-.6,15.781,4.96,22.76l-3.884,3.1L24.6,55.363,52.876,32.82l4.015,5.039L24.223,63.9-3.313,29.355S-15.336,14.272,0,0" fill="#c39bff"/></g><g transform="translate(524.645 748.54)"><path d="M0,0A1.952,1.952,0,0,0,.185-2.883,20.891,20.891,0,0,0-27.752-4.592a20.893,20.893,0,0,0-4.563,27.616,1.951,1.951,0,0,0,2.851.461Z" fill="#fff"/></g><g transform="translate(496.893 743.949)"><path d="M0,0C-3.433,8.087-.6,15.781,4.96,22.76l-6.619,5.276a1.935,1.935,0,0,1-2.879-.525C-7.153,23.064-12.12,11.279,0,0" fill="#9a57ff"/></g><g transform="translate(424.537 784.988)"><path d="M0,0,40.865-32.576,18.316-60.864-22.551-28.288Z" fill="#b98aff"/></g><g transform="translate(407.055 763.057)"><path d="M0,0,37.04-29.527l-5.068-6.357L-5.068-6.357Z" fill="#fff"/></g><g transform="translate(462.375 748.614)"><path d="M0,0-19.523-24.491-60.389,8.085" fill="none" stroke="#253448" stroke-linecap="round" stroke-linejoin="round" stroke-miterlimit="10" stroke-width="1.333"/></g><g transform="translate(405.343 760.909)"><path d="M0,0,19.195,24.079,60.06-8.5" fill="none" stroke="#253448" stroke-linecap="round" stroke-linejoin="round" stroke-miterlimit="10" stroke-width="1.333"/></g><g transform="translate(436.244 732.737)"><path d="M0,0,19.288,24.2" fill="none" stroke="#253448" stroke-linecap="round" stroke-linejoin="round" stroke-miterlimit="10" stroke-width="1.333"/></g><g transform="translate(428.115 739.218)"><path d="M0,0,19.288,24.2" fill="none" stroke="#253448" stroke-linecap="round" stroke-linejoin="round" stroke-miterlimit="10" stroke-width="1.333"/></g><g transform="translate(419.986 745.697)"><path d="M0,0,19.288,24.2" fill="none" stroke="#253448" stroke-linecap="round" stroke-linejoin="round" stroke-miterlimit="10" stroke-width="1.333"/></g><g transform="translate(411.857 752.178)"><path d="M0,0,19.288,24.2" fill="none" stroke="#253448" stroke-linecap="round" stroke-linejoin="round" stroke-miterlimit="10" stroke-width="1.333"/></g><g transform="translate(505.081 720.71)"><path d="M0,0-25.007-31.371" fill="none" stroke="#253448" stroke-linecap="round" stroke-linejoin="round" stroke-miterlimit="10" stroke-width="1.333"/></g><g transform="translate(449.939 718.559)"><path d="M0,0,25,31.365,57.671,5.324" fill="none" stroke="#253448" stroke-linecap="round" stroke-linejoin="round" stroke-miterlimit="10" stroke-width="1.333"/></g><g transform="translate(476.187 692.438)"><path d="M0,0-28.78,22.943" fill="none" stroke="#253448" stroke-linecap="round" stroke-linejoin="round" stroke-miterlimit="10" stroke-width="1.333"/></g><g transform="translate(447.393 680.319)"><path d="M0,0,4.073,5.111,2.58,6.3-1.495,1.192A2.655,2.655,0,0,1-4.369.319a2.66,2.66,0,0,1,.423-3.737A2.659,2.659,0,0,1-.211-3,2.653,2.653,0,0,1,0,0" fill="#60f"/></g><g transform="translate(459.936 681.815)"><path d="M0,0A20.9,20.9,0,0,0-16.068,27" fill="none" stroke="#253448" stroke-linecap="round" stroke-linejoin="round" stroke-miterlimit="10" stroke-width="1.333"/></g><g transform="translate(480.074 689.339)"><path d="M0,0A20.826,20.826,0,0,0-13.855-7.721" fill="none" stroke="#253448" stroke-linecap="round" stroke-linejoin="round" stroke-miterlimit="10" stroke-width="1.333"/></g><g transform="translate(513.239 765.989)"><path d="M0,0-4.073-5.111-2.579-6.3,1.495-1.192A2.66,2.66,0,1,1,0,0" fill="#a66bff"/></g><g transform="translate(496.104 771.292)"><path d="M0,0,28.541-22.752a1.95,1.95,0,0,0,.187-2.881,20.763,20.763,0,0,0-7.283-4.823" fill="none" stroke="#253448" stroke-linecap="round" stroke-linejoin="round" stroke-miterlimit="10" stroke-width="1.333"/></g><g transform="translate(510.767 739.412)"><path d="M0,0A20.813,20.813,0,0,0-13.875,4.537a20.9,20.9,0,0,0-5.605,25.8" fill="none" stroke="#253448" stroke-linecap="round" stroke-linejoin="round" stroke-miterlimit="10" stroke-width="1.333"/></g><g transform="translate(495.666 744.927)"><path d="M0,0,2.453-1.956-3.163-9-5.616-7.045Z" fill="#253448"/></g><g transform="translate(495.666 744.927)"><path d="M0,0,2.453-1.956-3.163-9-5.616-7.045Z" fill="none" stroke="#253448" stroke-linecap="round" stroke-linejoin="round" stroke-miterlimit="10" stroke-width="1.333"/></g><path d="M0,0-1.956-2.453-9,3.163l1.955,2.453Z" transform="translate(460.981 732.41)" fill="#253448"/><g transform="translate(460.981 732.41)"><path d="M0,0-1.956-2.453-9,3.163l1.955,2.453Z" fill="none" stroke="#253448" stroke-linecap="round" stroke-linejoin="round" stroke-miterlimit="10" stroke-width="1.333"/></g><g transform="translate(493.649 706.369)"><path d="M0,0-1.955-2.453,5.091-8.069,7.047-5.616Z" fill="#253448"/></g><g transform="translate(493.649 706.369)"><path d="M0,0-1.955-2.453,5.091-8.069,7.047-5.616Z" fill="none" stroke="#253448" stroke-linecap="round" stroke-linejoin="round" stroke-miterlimit="10" stroke-width="1.333"/></g><g transform="translate(553.029 682.563)"><path d="M0,0-40.865,32.576-63.416,4.288l40.867-32.576Z" fill="#c39bff"/></g><g transform="translate(535.547 660.632)"><path d="M0,0-37.04,29.527l-5.068-6.359L-5.068-6.357Z" fill="#fff"/></g><g transform="translate(509.135 711.341)"><path d="M0,0-19.523-24.491,21.344-57.067" fill="none" stroke="#253448" stroke-linecap="round" stroke-linejoin="round" stroke-miterlimit="10" stroke-width="1.333"/></g><g transform="translate(533.835 658.484)"><path d="M0,0,19.195,24.079-21.672,56.655" fill="none" stroke="#253448" stroke-linecap="round" stroke-linejoin="round" stroke-miterlimit="10" stroke-width="1.333"/></g><g transform="translate(499.482 682.328)"><path d="M0,0,19.288,24.2" fill="none" stroke="#253448" stroke-linecap="round" stroke-linejoin="round" stroke-miterlimit="10" stroke-width="1.333"/></g><g transform="translate(507.612 675.848)"><path d="M0,0,19.288,24.2" fill="none" stroke="#253448" stroke-linecap="round" stroke-linejoin="round" stroke-miterlimit="10" stroke-width="1.333"/></g><g transform="translate(515.741 669.368)"><path d="M0,0,19.288,24.2" fill="none" stroke="#253448" stroke-linecap="round" stroke-linejoin="round" stroke-miterlimit="10" stroke-width="1.333"/></g><g transform="translate(523.871 662.888)"><path d="M0,0,19.288,24.2" fill="none" stroke="#253448" stroke-linecap="round" stroke-linejoin="round" stroke-miterlimit="10" stroke-width="1.333"/></g><g transform="translate(471.437 722.843)"><path d="M0,0,10.556-8.415l-8.9-11.161L-8.9-11.161Z" fill="none" stroke="#253448" stroke-linecap="round" stroke-linejoin="round" stroke-miterlimit="10" stroke-width="1.333"/></g><g transform="translate(477.224 730.103)"><path d="M0,0,10.556-8.415,7.6-12.121-2.955-3.707Z" fill="none" stroke="#253448" stroke-linecap="round" stroke-linejoin="round" stroke-miterlimit="10" stroke-width="1.333"/></g></g><g transform="matrix(0.914, 0.407, -0.407, 0.914, -850.324, 177.442)"><g transform="translate(1180.734 259.191)"><path d="M0-3.091C0,9.564,11.66,19.823,11.66,19.823S23.318,9.564,23.318-3.091a33.1,33.1,0,0,0-1.12-7.864" transform="translate(0 10.955)" fill="none" stroke="#253448" stroke-linecap="round" stroke-linejoin="round" stroke-miterlimit="10" stroke-width="1.333"/></g><g transform="translate(1164.733 234.431)"><path d="M-5.166-8.653l-8.5-22.015a35.1,35.1,0,0,0-4.645,7.135c3.5,9.224.178,23.644.178,23.644l0,.008a29.669,29.669,0,0,0,4.465,6.833Z" transform="translate(18.308 30.668)" fill="#d18cff"/></g><g transform="translate(1162.017 237.001)"><path d="M-5.861-8.328l-7.55,13.865s-15.165-16.133-1.96-35.05" transform="translate(20.771 29.513)" fill="none" stroke="#253448" stroke-linecap="round" stroke-linejoin="round" stroke-miterlimit="10" stroke-width="1.333"/></g><g transform="translate(1206.91 234.431)"><path d="M0-8.653,8.5-30.668a35.134,35.134,0,0,1,4.644,7.135C9.644-14.309,12.964.112,12.964.112l0,.008A29.649,29.649,0,0,1,8.5,6.952Z" transform="translate(0 30.668)" fill="#d18cff"/></g><g transform="translate(1207.858 237.001)"><path d="M0-8.328,7.551,5.537S22.715-10.6,9.51-29.513" transform="translate(0 29.513)" fill="none" stroke="#253448" stroke-linecap="round" stroke-linejoin="round" stroke-miterlimit="10" stroke-width="1.333"/></g><g transform="translate(1164.022 150.368)"><path d="M-16.858-41.7C-11.465-57.3-3.005-79.022-3.005-92.016c0-30.8-28.371-55.758-28.371-55.758s-28.371,24.963-28.371,55.758c0,15.157,6.873,34.539,13.853,50.319Z" transform="translate(59.747 147.774)" fill="#fff"/></g><g transform="translate(1175.417 150.368)"><path d="M-2.135-12.519H4.487A4.921,4.921,0,0,1,9.407-7.6V18.784C9.407,36.8,3.27,55.973-7.568,55.974c.811,1.953,1.633,3.871,2.458,5.736H23.925C30.9,45.93,37.778,26.546,37.778,11.39c0-30.794-28.371-55.757-28.371-55.757C-.526-27.626-2.135-12.519-2.135-12.519" transform="translate(7.568 44.368)" fill="#bc57ff"/></g><g transform="translate(1169.375 150.368)"><path d="M-9.047,0s-14.8,13.018-23.017,31.849" transform="translate(32.064)" fill="none" stroke="#253448" stroke-linecap="round" stroke-linejoin="round" stroke-miterlimit="10" stroke-width="1.333"/></g><g transform="translate(1196.825 154.75)"><path d="M-7.939-29.224C-5.667-37.268-4.2-45.184-4.2-52.195c0-23.1-15.958-42.911-23.937-51.376" transform="translate(28.135 103.57)" fill="none" stroke="#253448" stroke-linecap="round" stroke-linejoin="round" stroke-miterlimit="10" stroke-width="1.333"/></g><g transform="translate(1164.021 206.126)"><path d="M0,0C0,15.157,6.873,34.539,13.853,50.319H42.888c2.5-5.657,4.992-11.779,7.155-18" fill="none" stroke="#253448" stroke-linecap="round" stroke-linejoin="round" stroke-miterlimit="10" stroke-width="1.333"/></g><path d="M0,0H42.925" transform="translate(1169.378 182.217)" fill="none" stroke="#253448" stroke-linecap="round" stroke-linejoin="round" stroke-miterlimit="10" stroke-width="1.333"/><g transform="translate(1178.793 186.32)"><path d="M-2.126-1.078A13.584,13.584,0,1,1-5.595,2.775" transform="translate(7.535 3.82)" fill="none" stroke="#253448" stroke-linecap="round" stroke-linejoin="round" stroke-miterlimit="10" stroke-width="1.333"/></g><g transform="translate(1182.459 189.987)"><path d="M-6.145-7.1a9.882,9.882,0,0,1-5.7,1.8,9.932,9.932,0,0,1-9.933-9.932,9.933,9.933,0,0,1,9.933-9.933,9.934,9.934,0,0,1,9.933,9.933,9.9,9.9,0,0,1-1.467,5.2" transform="translate(21.779 25.169)" fill="none" stroke="#253448" stroke-linecap="round" stroke-linejoin="round" stroke-miterlimit="10" stroke-width="1.333"/></g><g transform="translate(1191.084 240.84)"><path d="M-.514-12.268h0a1.308,1.308,0,0,1-1.308-1.308V-42.17A1.308,1.308,0,0,1-.514-43.479,1.308,1.308,0,0,1,.794-42.17v28.594A1.308,1.308,0,0,1-.514-12.268Z" transform="translate(1.823 43.479)" fill="none" stroke="#253448" stroke-linecap="round" stroke-linejoin="round" stroke-miterlimit="10" stroke-width="1.333"/></g><g transform="translate(1187.639 192.45)"><path d="M-3.574,0l-9.093,9.093" transform="translate(12.667)" fill="none" stroke="#253448" stroke-linecap="round" stroke-linejoin="round" stroke-miterlimit="10" stroke-width="1.333"/></g><g transform="translate(1187.074 197.073)"><path d="M-3.53,0l-8.981,8.981" transform="translate(12.511)" fill="none" stroke="#253448" stroke-linecap="round" stroke-linejoin="round" stroke-miterlimit="10" stroke-width="1.333"/></g><g transform="translate(1187.118 274.035)"><path d="M0,0A31.188,31.188,0,0,0,5.066,8.574" fill="none" stroke="#253448" stroke-linecap="round" stroke-linejoin="round" stroke-miterlimit="10" stroke-width="1.333"/></g><g transform="translate(1197.275 259.191)"><path d="M0-4.325c.742-3.41.564-6.931.255-11" transform="translate(0 15.328)" fill="none" stroke="#253448" stroke-linecap="round" stroke-linejoin="round" stroke-miterlimit="10" stroke-width="1.333"/></g><g transform="translate(1192.392 295.702)"><path d="M0,0V19.909" fill="none" stroke="#253448" stroke-linecap="round" stroke-linejoin="round" stroke-miterlimit="10" stroke-width="1.333"/></g><g transform="translate(1198.09 276.724)"><path d="M0,0V29.09" fill="none" stroke="#253448" stroke-linecap="round" stroke-linejoin="round" stroke-miterlimit="10" stroke-width="1.333"/></g><g transform="translate(1186.695 290.124)"><path d="M0,0V15.3" fill="none" stroke="#253448" stroke-linecap="round" stroke-linejoin="round" stroke-miterlimit="10" stroke-width="1.333"/></g></g></g></svg>